<?xml version="1.0" encoding="utf-8"?>
<!-- Generator: Adobe Illustrator 16.0.0, SVG Export Plug-In . SVG Version: 6.00 Build 0)  -->
<!DOCTYPE svg PUBLIC "-//W3C//DTD SVG 1.1//EN" "http://www.w3.org/Graphics/SVG/1.1/DTD/svg11.dtd">
<svg version="1.1" id="Layer_1" xmlns="http://www.w3.org/2000/svg" xmlns:xlink="http://www.w3.org/1999/xlink" x="0px" y="0px"
	 width="800px" height="74px" viewBox="0 0 800 74" enable-background="new 0 0 800 74" xml:space="preserve">
<g>
	<defs>
		<rect id="SVGID_1_" x="-1225" y="-283.25" width="800" height="526"/>
	</defs>
	<clipPath id="SVGID_2_">
		<use xlink:href="#SVGID_1_"  overflow="visible"/>
	</clipPath>
	<g clip-path="url(#SVGID_2_)">
		<image overflow="visible" width="800" height="600" xlink:href="6C19E87.jpg"  transform="matrix(1 0 0 1 -1225 -357.7417)">
		</image>
	</g>
</g>
<rect x="-1205" y="-9.25" fill="#01A495" width="741" height="23"/>
<g>
	<rect x="-1200.004" y="-2.918" fill="none" width="106" height="28"/>
	<path fill="#FFFFFF" d="M-1198.985,7.105V-2.916h7.431v1.695h-5.407v2.222h5.031v1.688h-5.031v2.728h5.599v1.688H-1198.985z"/>
	<path fill="#FFFFFF" d="M-1183.058,7.105h-1.921V3.4c0-0.784-0.041-1.291-0.123-1.521c-0.082-0.229-0.215-0.408-0.4-0.536
		s-0.407-0.191-0.667-0.191c-0.333,0-0.631,0.091-0.896,0.273s-0.445,0.424-0.543,0.725s-0.147,0.856-0.147,1.668v3.288h-1.921
		v-7.26h1.784v1.066c0.633-0.82,1.431-1.23,2.393-1.23c0.424,0,0.811,0.076,1.162,0.229c0.351,0.153,0.616,0.348,0.796,0.585
		s0.305,0.506,0.376,0.807s0.106,0.731,0.106,1.292V7.105z"/>
	<path fill="#FFFFFF" d="M-1181.287,7.584l2.194,0.267c0.037,0.255,0.121,0.431,0.253,0.526c0.182,0.137,0.469,0.205,0.861,0.205
		c0.501,0,0.877-0.075,1.128-0.226c0.168-0.101,0.296-0.262,0.383-0.485c0.059-0.159,0.089-0.453,0.089-0.882V5.93
		c-0.574,0.784-1.299,1.176-2.174,1.176c-0.975,0-1.748-0.412-2.317-1.237c-0.447-0.651-0.67-1.463-0.67-2.434
		c0-1.217,0.293-2.146,0.878-2.789s1.313-0.964,2.184-0.964c0.898,0,1.638,0.395,2.222,1.183v-1.019h1.798V6.36
		c0,0.856-0.071,1.497-0.212,1.921s-0.339,0.757-0.595,0.998s-0.596,0.431-1.022,0.567s-0.965,0.205-1.617,0.205
		c-1.23,0-2.103-0.211-2.618-0.632c-0.515-0.422-0.772-0.956-0.772-1.604C-1181.294,7.753-1181.292,7.675-1181.287,7.584z
		 M-1179.571,3.325c0,0.771,0.149,1.334,0.448,1.692c0.298,0.357,0.667,0.536,1.104,0.536c0.469,0,0.866-0.184,1.189-0.55
		c0.324-0.367,0.485-0.911,0.485-1.631c0-0.752-0.155-1.311-0.465-1.675s-0.702-0.547-1.176-0.547c-0.46,0-0.84,0.179-1.138,0.536
		C-1179.422,2.046-1179.571,2.592-1179.571,3.325z"/>
	<path fill="#FFFFFF" d="M-1172.558,7.105V-2.916h1.921V7.105H-1172.558z"/>
	<path fill="#FFFFFF" d="M-1168.668-1.139v-1.777h1.921v1.777H-1168.668z M-1168.668,7.105v-7.26h1.921v7.26H-1168.668z"/>
	<path fill="#FFFFFF" d="M-1165.455,5.034l1.928-0.294c0.082,0.374,0.249,0.657,0.499,0.852c0.25,0.193,0.602,0.29,1.053,0.29
		c0.497,0,0.871-0.091,1.121-0.273c0.168-0.128,0.253-0.299,0.253-0.513c0-0.146-0.045-0.267-0.137-0.362
		c-0.096-0.091-0.31-0.176-0.643-0.253c-1.549-0.342-2.532-0.654-2.946-0.937c-0.574-0.392-0.861-0.937-0.861-1.634
		c0-0.629,0.249-1.157,0.745-1.586s1.267-0.643,2.311-0.643c0.994,0,1.732,0.162,2.215,0.485s0.816,0.802,0.998,1.436l-1.812,0.335
		c-0.078-0.282-0.225-0.499-0.441-0.649s-0.525-0.226-0.926-0.226c-0.506,0-0.868,0.07-1.087,0.212
		c-0.146,0.101-0.219,0.23-0.219,0.39c0,0.137,0.064,0.253,0.191,0.349c0.173,0.128,0.771,0.308,1.794,0.54s1.737,0.518,2.143,0.854
		c0.401,0.342,0.602,0.818,0.602,1.429c0,0.665-0.278,1.237-0.834,1.716s-1.378,0.718-2.468,0.718c-0.989,0-1.771-0.2-2.348-0.602
		S-1165.277,5.723-1165.455,5.034z"/>
	<path fill="#FFFFFF" d="M-1155.078-2.916v3.685c0.62-0.725,1.36-1.087,2.222-1.087c0.442,0,0.841,0.082,1.196,0.246
		s0.623,0.374,0.803,0.629s0.303,0.538,0.369,0.848s0.099,0.791,0.099,1.442v4.259h-1.921V3.271c0-0.761-0.037-1.244-0.109-1.449
		s-0.202-0.368-0.386-0.489c-0.185-0.12-0.416-0.181-0.694-0.181c-0.319,0-0.604,0.077-0.854,0.232s-0.434,0.389-0.55,0.7
		c-0.116,0.313-0.174,0.774-0.174,1.385v3.637h-1.921V-2.916H-1155.078z"/>
</g>
<g>
	<rect x="-1032.393" y="-2.918" fill="none" width="106" height="28"/>
	<path fill="#FFFFFF" d="M-1031.917,4.6V3.273h4.05V4.6H-1031.917z"/>
	<path fill="#FFFFFF" d="M-1009.782,7.822v-9.306h6.9v1.574h-5.021v2.063h4.672v1.567h-4.672v2.532h5.199v1.568H-1009.782z"/>
	<path fill="#FFFFFF" d="M-994.992,7.822h-1.784v-3.44c0-0.728-0.038-1.198-0.114-1.412s-0.2-0.38-0.371-0.499
		c-0.172-0.118-0.378-0.178-0.619-0.178c-0.309,0-0.586,0.085-0.832,0.254c-0.246,0.17-0.414,0.395-0.504,0.674
		c-0.091,0.279-0.137,0.795-0.137,1.549v3.053h-1.784V1.081h1.657v0.99c0.588-0.762,1.329-1.143,2.222-1.143
		c0.394,0,0.753,0.071,1.079,0.213s0.572,0.322,0.739,0.542c0.167,0.221,0.284,0.471,0.35,0.75c0.065,0.279,0.098,0.679,0.098,1.199
		V7.822z"/>
	<path fill="#FFFFFF" d="M-993.348,8.267l2.038,0.247c0.034,0.237,0.112,0.4,0.235,0.489c0.169,0.127,0.436,0.19,0.8,0.19
		c0.465,0,0.814-0.07,1.047-0.209c0.157-0.094,0.275-0.244,0.355-0.451c0.055-0.148,0.083-0.421,0.083-0.818V6.73
		c-0.533,0.728-1.206,1.092-2.019,1.092c-0.906,0-1.623-0.383-2.152-1.148c-0.415-0.605-0.622-1.359-0.622-2.26
		c0-1.131,0.272-1.994,0.815-2.59c0.544-0.598,1.22-0.896,2.028-0.896c0.833,0,1.521,0.366,2.063,1.099V1.081h1.669v6.05
		c0,0.795-0.065,1.39-0.197,1.783s-0.315,0.702-0.552,0.927s-0.553,0.399-0.949,0.526c-0.396,0.127-0.896,0.191-1.501,0.191
		c-1.143,0-1.953-0.196-2.431-0.588s-0.717-0.888-0.717-1.488C-993.354,8.423-993.352,8.352-993.348,8.267z M-991.754,4.313
		c0,0.715,0.139,1.238,0.416,1.57c0.277,0.332,0.619,0.498,1.025,0.498c0.436,0,0.804-0.17,1.104-0.511s0.451-0.845,0.451-1.514
		c0-0.698-0.144-1.217-0.432-1.556c-0.288-0.338-0.652-0.508-1.092-0.508c-0.427,0-0.78,0.167-1.057,0.499
		C-991.616,3.124-991.754,3.631-991.754,4.313z"/>
	<path fill="#FFFFFF" d="M-985.242,7.822v-9.306h1.784v9.306H-985.242z"/>
	<path fill="#FFFFFF" d="M-981.63,0.167v-1.65h1.784v1.65H-981.63z M-981.63,7.822V1.081h1.784v6.741H-981.63z"/>
	<path fill="#FFFFFF" d="M-978.646,5.898l1.79-0.272c0.076,0.347,0.23,0.61,0.463,0.79s0.559,0.27,0.978,0.27
		c0.461,0,0.808-0.084,1.041-0.254c0.157-0.118,0.235-0.276,0.235-0.476c0-0.136-0.042-0.247-0.127-0.337
		c-0.089-0.084-0.288-0.162-0.597-0.234c-1.439-0.317-2.351-0.607-2.736-0.869c-0.533-0.364-0.8-0.87-0.8-1.518
		c0-0.584,0.23-1.075,0.692-1.473s1.176-0.597,2.146-0.597c0.922,0,1.608,0.15,2.057,0.45c0.449,0.301,0.757,0.745,0.927,1.334
		l-1.682,0.311c-0.072-0.263-0.208-0.463-0.41-0.604c-0.201-0.139-0.487-0.209-0.86-0.209c-0.47,0-0.806,0.065-1.009,0.197
		c-0.135,0.093-0.203,0.213-0.203,0.361c0,0.127,0.059,0.234,0.178,0.324c0.161,0.118,0.716,0.285,1.666,0.501
		c0.95,0.216,1.614,0.48,1.99,0.794c0.373,0.316,0.559,0.759,0.559,1.326c0,0.618-0.258,1.148-0.774,1.594
		c-0.516,0.443-1.28,0.666-2.292,0.666c-0.918,0-1.645-0.187-2.18-0.559C-978.131,7.044-978.481,6.538-978.646,5.898z"/>
	<path fill="#FFFFFF" d="M-969.011-1.483v3.421c0.576-0.672,1.263-1.009,2.063-1.009c0.411,0,0.781,0.076,1.111,0.229
		s0.579,0.347,0.746,0.584c0.167,0.237,0.282,0.499,0.343,0.787c0.062,0.288,0.092,0.734,0.092,1.339v3.955h-1.784V4.262
		c0-0.707-0.034-1.156-0.102-1.346c-0.068-0.191-0.188-0.342-0.358-0.454c-0.172-0.112-0.386-0.169-0.645-0.169
		c-0.296,0-0.561,0.072-0.793,0.217c-0.233,0.144-0.403,0.36-0.511,0.65c-0.107,0.29-0.162,0.718-0.162,1.285v3.377h-1.784v-9.306
		H-969.011z"/>
</g>
<g>
	<defs>
		<rect id="SVGID_3_" y="-0.25" width="800" height="75"/>
	</defs>
	<clipPath id="SVGID_4_">
		<use xlink:href="#SVGID_3_"  overflow="visible"/>
	</clipPath>
	<g clip-path="url(#SVGID_4_)">
		<rect y="-0.25" fill="#010027" width="800" height="75"/>
		<circle fill="#01A495" cx="593.043" cy="78.699" r="192.278"/>
		<polygon opacity="0.6" fill="#010027" points="778.262,-41.181 823.308,135.698 442.555,313.942 371.148,86.799 		"/>
		
			<linearGradient id="SVGID_5_" gradientUnits="userSpaceOnUse" x1="33.3101" y1="-160.8135" x2="940.9219" y2="-160.8135" gradientTransform="matrix(0.6148 0 0 0.3906 173.521 28.5637)">
			<stop  offset="0" style="stop-color:#010027;stop-opacity:0"/>
			<stop  offset="0.8533" style="stop-color:#010027;stop-opacity:0.8533"/>
			<stop  offset="1" style="stop-color:#010027"/>
		</linearGradient>
		<rect x="194" y="-204.25" fill="url(#SVGID_5_)" width="558" height="340"/>
		
			<rect x="645.448" y="-103.751" transform="matrix(0.7625 0.647 -0.647 0.7625 235.4473 -394.0953)" fill="#010027" width="18.194" height="454.841"/>
		
			<rect x="577.043" y="-178.537" transform="matrix(0.7624 0.6471 -0.6471 0.7624 176.1362 -384.0149)" opacity="0.6" fill="#010027" width="68.028" height="452.819"/>
		
			<rect x="630.514" y="-110.326" transform="matrix(0.7625 0.647 -0.647 0.7625 223.4259 -397.1769)" opacity="0.6" fill="#010027" width="44.299" height="432.082"/>
		
			<rect x="641.784" y="-56.073" transform="matrix(0.63 0.7766 -0.7766 0.63 350.7532 -482.5125)" fill="#010027" width="79.981" height="365.867"/>
		
			<rect x="422.442" y="-254.368" transform="matrix(0.8407 0.5415 -0.5415 0.8407 41.8326 -262.878)" fill="#010027" width="90.449" height="388.043"/>
		<g>
			<path fill="#01A495" d="M86.182,66.94l-0.743-0.196c-1.088-0.287-26.725-7.253-32.32-24.099
				c-2.494-7.507-1.336-15.229,3.258-21.743c4.928-6.987,13.067-11.438,21.238-11.613c7.471-0.162,14.534,2.641,19.857,7.844
				c5.186,5.07,8.129,11.857,8.286,19.112c0.322,14.963-18.183,29.606-18.971,30.223L86.182,66.94z M78.221,12.373
				c-0.179,0-0.36,0.003-0.539,0.006c-7.21,0.155-14.406,4.104-18.78,10.305c-4.015,5.691-5.027,12.436-2.85,18.988
				c4.575,13.773,25.229,20.608,29.433,21.869c3.138-2.618,17.442-15.225,17.183-27.23C102.383,23.111,91.417,12.373,78.221,12.373z
				"/>
		</g>
		
			<rect x="74.098" y="6.408" transform="matrix(-0.9074 0.4203 -0.4203 -0.9074 179.0683 35.2709)" fill="#010027" width="23.1" height="61.917"/>
		<g>
			<path fill="#FFFFFF" d="M147.741,37.162c-0.059,0.059-0.059,9.746-0.179,12.273c-0.12,2.043-0.301,6.438-4.633,6.438
				c-4.453,0-5.538-5.115-5.898-7.34c-0.419-2.467-0.419-4.516-0.419-5.416c0-2.887,0.179-10.956,6.979-10.956
				c2.046,0,3.191,0.605,4.092,1.085L147.741,37.162z M130.292,44.262c0,16.967,9.027,16.967,10.352,16.967
				c3.729,0,6.138-2.045,7.159-5.594l0.12,5.354c1.144-0.063,2.287-0.18,4.152-0.18c0.663,0,1.203,0,1.686,0.061
				c0.48,0,0.96,0.057,1.504,0.119c-0.964-1.924-1.684-6.256-1.684-15.646c0-9.147,0-24.61,0.781-29.304
				c-2.165,1.023-4.032,1.687-8.124,2.047c1.623,1.744,1.623,2.647,1.623,10.588c-1.143-0.36-2.587-0.781-5.054-0.781
				C132.036,27.893,130.292,37.279,130.292,44.262"/>
			<path fill="#FFFFFF" d="M162.925,41.191c0.062-4.997,1.084-9.449,5.356-9.449c4.694,0,5.053,5.173,4.933,9.449H162.925z
				 M179.171,41.795c0-7.042-1.384-13.962-10.29-13.962c-12.274,0-12.274,13.601-12.274,16.488c0,12.213,5.474,17.027,14.682,17.027
				c4.091,0,6.079-0.6,7.161-0.902c-0.06-2.166,0.24-3.551,0.603-5.416c-1.266,0.785-2.889,1.807-6.5,1.807
				c-9.389,0-9.507-8.547-9.507-11.494h16.007L179.171,41.795"/>
			<path fill="#FFFFFF" d="M198.744,44.381c0,5.596-1.021,13.117-7.998,13.117c-0.964,0-2.167-0.182-2.949-0.361
				c-0.122-2.168-0.122-5.896-0.122-10.229c0-5.178,0.54-7.881,0.964-9.207c1.263-4.272,4.091-4.33,4.632-4.33
				C197.844,33.371,198.744,39.689,198.744,44.381z M181.479,50.939c0,4.453,0,6.98-0.723,8.904
				c2.466,0.965,5.533,1.504,9.205,1.504c2.347,0,9.147,0,12.816-7.521c1.746-3.488,2.347-8.182,2.347-11.734
				c0-2.166-0.241-6.92-1.985-9.93c-1.684-2.823-4.393-4.269-7.277-4.269c-5.779,0-7.463,4.813-8.364,7.279
				c0-3.066,0.057-13.778,0.538-19.253c-3.911,1.806-6.319,2.104-8.904,2.344c2.348,0.963,2.348,4.938,2.348,17.876L181.479,50.939"
				/>
			<path fill="#FFFFFF" d="M216.693,60.988c-1.204-0.18-2.049-0.301-3.795-0.301c-1.921,0-3.247,0.121-4.631,0.301
				c0.602-1.145,0.842-1.688,1.022-5.596c0.241-5.357,0.302-19.68-0.12-22.688c-0.301-2.289-0.84-2.649-1.684-3.25
				c4.933-0.481,6.317-0.842,8.603-1.926c-0.48,2.646-0.543,3.975-0.543,8.003C215.427,56.295,215.367,58.521,216.693,60.988"/>
			<path fill="#FFFFFF" d="M235.961,43.957c-0.121,3.793-0.18,6.439-1.204,8.545c-1.266,2.709-3.37,3.49-4.934,3.49
				c-3.614,0-4.394-3.006-4.394-5.955c0-5.656,5.057-6.08,7.338-6.08H235.961z M219.411,51.361c0,3.791,1.144,7.58,4.517,9.207
				c1.503,0.66,3.008,0.66,3.49,0.66c5.537,0,7.4-4.092,8.543-6.619c-0.061,2.648,0,4.271,0.182,6.379
				c1.082-0.063,2.166-0.18,3.973-0.18c1.021,0,1.985,0.117,3.006,0.18c-0.662-1.021-1.021-1.627-1.204-3.973
				c-0.121-2.285-0.121-4.572-0.121-7.762l0.062-12.275c0-4.576-1.206-9.087-10.231-9.087c-5.955,0-9.445,1.805-11.19,2.709
				c0.724,1.323,1.325,2.463,1.866,5.054c2.348-2.046,5.418-3.129,8.543-3.129c4.998,0,4.998,3.311,4.998,8.001
				c-1.143-0.057-2.108-0.176-3.734-0.176C224.467,40.352,219.411,43.295,219.411,51.361"/>
			<path fill="#FFFFFF" d="M270.62,55.029c0.061,2.047,0.061,4.215,0.903,5.961c-1.327-0.121-2.109-0.303-4.572-0.303
				c-1.446,0-2.229,0.121-3.373,0.303c0.24-0.781,0.363-1.084,0.482-2.109c0.182-1.381,0.301-6.016,0.301-7.641v-6.5
				c0-2.828,0-6.92-0.183-8.361c-0.118-1.023-0.416-3.791-3.911-3.791c-3.43,0-4.571,2.525-4.995,4.574
				c-0.477,2.104-0.477,4.391-0.477,13.295c0.057,7.703,0.057,8.424,0.658,10.531c-1.022-0.119-2.285-0.24-4.089-0.24
				c-1.446,0-2.409,0.061-3.61,0.24c0.421-0.963,0.662-1.445,0.781-4.814c0.124-3.311,0.364-19.557-0.182-23.407
				c-0.299-2.349-0.903-2.888-1.562-3.49c4.875-0.242,6.436-1.025,7.942-1.804v6.377c0.722-1.869,2.224-6.02,8.243-6.02
				c7.524,0,7.581,5.477,7.643,9.086V55.029"/>
			<path fill="#A80030" d="M217.2,19.017l-4.984,4.98l-4.981-4.98l4.981-4.982L217.2,19.017"/>
		</g>
		<circle opacity="0.4" fill="#010027" cx="77.452" cy="-7.727" r="45.567"/>
		<g>
			<path fill="#FFFFFF" d="M82.674,38.197c-0.474,0.006,0.089,0.243,0.708,0.338c0.172-0.133,0.325-0.268,0.463-0.398
				C83.461,38.229,83.069,38.232,82.674,38.197"/>
			<path fill="#FFFFFF" d="M85.215,37.563c0.282-0.389,0.488-0.814,0.561-1.256c-0.064,0.314-0.234,0.585-0.394,0.871
				c-0.885,0.559-0.084-0.33,0-0.668C84.429,37.708,85.249,37.229,85.215,37.563"/>
			<path fill="#FFFFFF" d="M86.154,35.122c0.057-0.853-0.168-0.583-0.244-0.258C85.999,34.91,86.068,35.465,86.154,35.122"/>
			<path fill="#FFFFFF" d="M80.877,23.467c0.252,0.045,0.547,0.08,0.504,0.14C81.659,23.546,81.722,23.491,80.877,23.467"/>
			<path fill="#FFFFFF" d="M81.382,23.607l-0.178,0.037l0.166-0.016L81.382,23.607"/>
			<path fill="#FFFFFF" d="M89.264,35.445c0.028,0.766-0.224,1.138-0.451,1.796l-0.411,0.203c-0.334,0.651,0.034,0.413-0.206,0.931
				c-0.523,0.465-1.586,1.455-1.927,1.544c-0.249-0.005,0.168-0.292,0.222-0.405c-0.7,0.48-0.561,0.722-1.632,1.015l-0.031-0.07
				c-2.641,1.242-6.307-1.22-6.258-4.577c-0.029,0.213-0.08,0.16-0.139,0.246c-0.137-1.729,0.798-3.463,2.374-4.172
				c1.541-0.763,3.348-0.45,4.451,0.579c-0.606-0.794-1.813-1.636-3.243-1.558c-1.401,0.023-2.712,0.913-3.149,1.88
				c-0.717,0.452-0.801,1.742-1.113,1.979c-0.422,3.094,0.791,4.428,2.843,6.001c0.321,0.217,0.09,0.25,0.133,0.416
				c-0.682-0.318-1.305-0.802-1.818-1.392c0.272,0.399,0.566,0.786,0.946,1.09c-0.642-0.216-1.501-1.557-1.75-1.611
				c1.107,1.983,4.492,3.478,6.266,2.736c-0.821,0.031-1.863,0.017-2.785-0.324c-0.388-0.198-0.914-0.61-0.819-0.688
				c2.42,0.904,4.919,0.683,7.013-0.995c0.533-0.414,1.114-1.12,1.283-1.129c-0.253,0.38,0.043,0.183-0.15,0.519
				c0.529-0.856-0.231-0.348,0.548-1.478l0.288,0.396c-0.107-0.711,0.882-1.573,0.782-2.697c0.227-0.344,0.253,0.37,0.012,1.16
				c0.334-0.877,0.088-1.018,0.174-1.741c0.092,0.243,0.215,0.502,0.277,0.759c-0.217-0.848,0.223-1.428,0.333-1.92
				c-0.108-0.048-0.335,0.375-0.389-0.626c0.008-0.435,0.122-0.229,0.165-0.335c-0.085-0.049-0.308-0.382-0.445-1.021
				c0.098-0.151,0.264,0.389,0.398,0.411c-0.087-0.508-0.235-0.896-0.242-1.286c-0.393-0.821-0.14,0.11-0.457-0.352
				c-0.419-1.304,0.347-0.303,0.398-0.895c0.633,0.917,0.994,2.34,1.161,2.929c-0.127-0.719-0.332-1.415-0.581-2.088
				c0.192,0.081-0.311-1.478,0.25-0.446c-0.598-2.201-2.56-4.258-4.364-5.222c0.22,0.202,0.499,0.456,0.399,0.496
				c-0.898-0.534-0.741-0.576-0.869-0.801c-0.73-0.299-0.779,0.023-1.263,0c-1.378-0.732-1.644-0.654-2.912-1.111l0.057,0.27
				c-0.913-0.304-1.063,0.115-2.05,0c-0.06-0.046,0.316-0.169,0.626-0.214c-0.883,0.116-0.842-0.174-1.705,0.032
				c0.212-0.149,0.437-0.248,0.664-0.375c-0.719,0.043-1.719,0.418-1.41,0.078c-1.175,0.523-3.26,1.259-4.43,2.357l-0.037-0.246
				c-0.537,0.644-2.338,1.922-2.482,2.757l-0.143,0.033c-0.279,0.472-0.46,1.007-0.681,1.493c-0.365,0.622-0.535,0.241-0.483,0.337
				c-0.717,1.455-1.074,2.678-1.382,3.681c0.218,0.328,0.005,1.976,0.087,3.293c-0.36,6.511,4.569,12.831,9.958,14.289
				c0.79,0.284,1.964,0.274,2.962,0.302c-1.178-0.338-1.33-0.179-2.479-0.578c-0.828-0.391-1.01-0.836-1.596-1.346l0.232,0.411
				c-1.15-0.407-0.669-0.505-1.604-0.801l0.248-0.322c-0.373-0.029-0.988-0.629-1.155-0.962l-0.409,0.017
				c-0.489-0.604-0.751-1.041-0.731-1.38l-0.132,0.235c-0.15-0.256-1.803-2.269-0.945-1.8c-0.159-0.145-0.372-0.237-0.601-0.655
				l0.175-0.198c-0.413-0.531-0.76-1.213-0.734-1.439c0.22,0.298,0.373,0.353,0.525,0.403c-1.043-2.586-1.102-0.142-1.891-2.633
				l0.166-0.014c-0.127-0.193-0.206-0.402-0.308-0.607l0.073-0.725c-0.75-0.867-0.21-3.689-0.101-5.238
				c0.074-0.629,0.626-1.299,1.045-2.351l-0.255-0.044c0.489-0.852,2.789-3.421,3.855-3.29c0.516-0.649-0.103-0.003-0.204-0.166
				c1.134-1.173,1.491-0.829,2.256-1.04c0.825-0.489-0.708,0.191-0.317-0.187c1.427-0.364,1.01-0.828,2.872-1.013
				c0.196,0.112-0.456,0.173-0.619,0.318c1.188-0.582,3.761-0.45,5.433,0.321c1.938,0.907,4.118,3.586,4.204,6.107l0.098,0.026
				c-0.05,1.002,0.154,2.161-0.199,3.225L89.264,35.445"/>
			<path fill="#FFFFFF" d="M77.505,38.848l-0.067,0.33c0.312,0.423,0.559,0.881,0.956,1.212
				C78.108,39.831,77.896,39.601,77.505,38.848"/>
			<path fill="#FFFFFF" d="M78.24,38.818c-0.165-0.184-0.262-0.402-0.371-0.62c0.104,0.384,0.319,0.714,0.518,1.049L78.24,38.818"/>
			<path fill="#FFFFFF" d="M91.26,35.988l-0.069,0.175c-0.127,0.905-0.404,1.802-0.826,2.633
				C90.831,37.92,91.132,36.96,91.26,35.988"/>
			<path fill="#FFFFFF" d="M80.972,23.239c0.32-0.117,0.787-0.064,1.127-0.142c-0.443,0.038-0.884,0.06-1.319,0.115L80.972,23.239"
				/>
			<path fill="#FFFFFF" d="M69.731,29.217c0.073,0.683-0.514,0.948,0.13,0.498C70.207,28.937,69.727,29.499,69.731,29.217"/>
			<path fill="#FFFFFF" d="M68.974,32.377c0.149-0.455,0.176-0.729,0.232-0.993C68.796,31.909,69.017,32.021,68.974,32.377"/>
		</g>
		<g>
			<rect x="283.52" y="22.667" fill="none" width="52.96" height="30.049"/>
			<path fill="#FFFFFF" d="M295.657,39.094c0,3.626,0.037,5.772,0.111,7.659c0.11,2.331,0.333,2.85,0.666,3.516
				c-0.999-0.111-1.961-0.111-2.887-0.111c-1.072,0-1.554,0.037-2.368,0.111c0.37-0.925,0.519-1.443,0.593-3.404
				c0.073-1.48,0.11-3.294,0.147-7.659v-4.292c-0.111-5.551-0.111-6.143-0.185-7.179c-1.628,0.629-3.22,1.295-4.773,2.146
				c0.037-0.407,0.074-0.777,0.11-1.184c0-0.703-0.073-1.11-0.11-1.628c1.85-0.407,5.883-1.554,8.881-3.663
				c-0.148,2.812-0.186,4.847-0.186,10.545V39.094z"/>
			<path fill="#FFFFFF" d="M314.157,39.094c0,3.626,0.037,5.772,0.111,7.659c0.11,2.331,0.333,2.85,0.666,3.516
				c-0.999-0.111-1.961-0.111-2.887-0.111c-1.072,0-1.554,0.037-2.368,0.111c0.37-0.925,0.519-1.443,0.593-3.404
				c0.073-1.48,0.11-3.294,0.147-7.659v-4.292c-0.111-5.551-0.111-6.143-0.185-7.179c-1.628,0.629-3.22,1.295-4.773,2.146
				c0.037-0.407,0.074-0.777,0.11-1.184c0-0.703-0.073-1.11-0.11-1.628c1.85-0.407,5.883-1.554,8.881-3.663
				c-0.148,2.812-0.186,4.847-0.186,10.545V39.094z"/>
		</g>
		
			<rect x="609.693" y="49.164" transform="matrix(1 0.0029 -0.0029 1 0.1501 -1.7636)" fill="#E7E9B9" width="3.725" height="3.972"/>
		<g opacity="0.4">
			<image overflow="visible" width="79" height="79" xlink:href="6C19E85.png"  transform="matrix(1 0 0 1 572 10.75)">
			</image>
		</g>
		
			<rect x="635.578" y="46.722" transform="matrix(0.7512 0.6601 -0.6601 0.7512 191.2036 -408.8505)" opacity="0.7" fill="#01A495" width="4.716" height="4.964"/>
		
			<rect x="610.69" y="62.921" transform="matrix(0.9113 0.4117 -0.4117 0.9113 81.9292 -247.0537)" opacity="0.4" fill="#01A495" width="7.445" height="7.445"/>
		<g opacity="0.5">
			<image overflow="visible" width="83" height="82" xlink:href="6C19E8B.png"  transform="matrix(1 0 0 1 575 24.75)">
			</image>
		</g>
		<g opacity="0.6">
			<image overflow="visible" width="82" height="81" xlink:href="6C19E8D.png"  transform="matrix(1 0 0 1 598 7.75)">
			</image>
		</g>
		
			<rect x="608.754" y="11.591" transform="matrix(0.9703 0.2418 -0.2418 0.9703 21.4173 -147.305)" fill="#ADD8D8" width="4" height="4"/>
		<g opacity="0.4">
			<image overflow="visible" width="79" height="79" xlink:href="6C19E8F.png"  transform="matrix(1 0 0 1 571 -27.25)">
			</image>
		</g>
		
			<rect x="630.576" y="25.551" transform="matrix(0.9995 0.0306 -0.0306 0.9995 1.1763 -19.3783)" opacity="0.4" fill="#0E4B8C" width="4.957" height="6.308"/>
		<g opacity="0.5">
			<image overflow="visible" width="78" height="80" xlink:href="6C19E8C.png"  transform="matrix(1 0 0 1 595 -12.25)">
			</image>
		</g>
	</g>
</g>
<g>
</g>
<g>
</g>
<g>
</g>
<g>
</g>
<g>
</g>
<g>
</g>
<g>
</g>
<g>
</g>
<g>
</g>
<g>
</g>
<g>
</g>
<g>
</g>
<g>
</g>
<g>
</g>
<g>
</g>
</svg>
